<svg xmlns="http://www.w3.org/2000/svg" width="1024" height="1024" viewBox="0 0 1024 1024">
  <defs>
    <linearGradient id="emerald" x1="0" y1="0" x2="1" y2="1">
      <stop stop-color="#139f79"/><stop offset="1" stop-color="#064f46"/>
    </linearGradient>
  </defs>
  <rect width="1024" height="1024" fill="url(#emerald)"/>
  <g id="mark">
    <path d="M222 330C318 281 421 296 491 351V713C418 657 318 650 222 686Z" fill="#fff9e9"/>
    <path d="M533 351C604 296 707 281 802 330V686C706 650 606 657 533 713Z" fill="#fff9e9"/>
    <path d="M243 724C333 698 414 710 491 760M781 724C691 698 610 710 533 760" fill="none" stroke="#73dcb0" stroke-width="24" stroke-linecap="round"/>
    <path d="M750 166C760 212 776 228 822 238C776 248 760 264 750 310C740 264 724 248 678 238C724 228 740 212 750 166Z" fill="#ffd480"/>
  </g>
</svg>
